<svg xmlns="http://www.w3.org/2000/svg" xmlns:xlink="http://www.w3.org/1999/xlink" aria-hidden="true" role="img" class="iconify iconify--logos" width="35.93" height="32" preserveAspectRatio="xMidYMid meet" viewBox="0 0 256 228"><path fill="#00D8FF" d="M210.483 73.824a171.49 171.49 0 0 0-8.24-2.597c.465-1.9.893-3.777 1.273-5.621c6.238-30.281 2.16-54.676-11.769-62.708c-13.355-7.7-35.196.329-57.254 19.526a171.23 171.23 0 0 0-6.375 5.848a155.866 155.866 0 0 0-4.241-3.917C100.759 3.829 77.587-4.822 63.673 3.233C50.33 10.957 46.379 33.89 51.986 62.588a170.974 170.974 0 0 0 1.892 8.48c-3.28.932-6.445 1.924-9.474 2.98C17.309 83.498 0 98.307 0 113.668c0 15.865 18.582 31.778 46.812 41.427a145.52 145.52 0 0 0 6.921 2.165a167.467 167.467 0 0 0-2.01 9.138c-5.354 28.2-1.173 50.591 12.134 58.266c13.744 7.926 36.812-.22 59.273-19.855a145.567 145.567 0 0 0 5.342-4.923a168.064 168.064 0 0 0 6.92 6.314c21.758 18.722 43.246 26.282 56.54 18.586c13.731-7.949 18.194-32.003 12.4-61.268a145.016 145.016 0 0 0-1.535-6.842c1.62-.48 3.21-.974 4.76-1.488c29.348-9.723 48.443-25.443 48.443-41.52c0-15.417-17.868-30.326-45.517-39.844Zm-6.365 70.984c-1.4.463-2.836.91-4.3 1.345c-3.24-10.257-7.612-21.163-12.963-32.432c5.106-11 9.31-21.767 12.459-31.957a145.45 145.45 0 0 1 7.535 2.358c22.533 7.813 36.272 18.848 36.272 28.446c0 10.18-14.867 21.988-39.003 30.24Zm-10.58 20.22c1.562 5.685 2.524 11.226 2.879 16.406c.34 4.973-.137 9.093-1.333 12.06c-2.076 5.147-6.754 7.474-13.95 3.318c-7.609-4.396-16.938-12.737-27.02-23.852c2.47-2.373 4.948-4.916 7.405-7.63c5.592-6.164 10.786-12.683 15.56-19.378c5.593.737 10.95 1.303 16.03 1.687c-.16 5.77-.867 11.517-2.128 16.97c-.135.457-.265.925-.443 1.419ZM115.892 203.16c-5.254 5.79-10.697 10.79-16.101 14.748c-4.119 3.017-7.875 4.958-10.874 5.774c-5.2 1.415-9.463-.04-12.37-4.588c-3.073-4.811-4.3-12.27-3.704-22.171c.334-5.546 1.193-11.547 2.543-17.857c5.236 1.024 10.787 1.845 16.596 2.446c5.803 5.977 11.89 11.567 18.131 16.684l.09.064c1.897 1.542 3.808 3.011 5.689 4.414v.486Zm-42.867-33.152c-2.54-4.407-4.968-8.838-7.273-13.247c-2.299-4.397-4.456-8.774-6.465-13.097c4.695-1.163 9.638-2.182 14.786-3.054c1.79 3.415 3.685 6.876 5.671 10.351c1.996 3.492 4.063 6.942 6.178 10.32c-4.252 3.175-8.538 6.2-12.897 8.727Zm-14.334-52.216c-5.063-.888-9.858-1.881-14.358-2.971c2.74-9.528 6.531-19.771 11.29-30.346c1.956 4.166 4.065 8.411 6.332 12.69c2.28 4.3 4.665 8.527 7.133 12.626c-3.504.866-6.97 1.792-10.397 2.817v5.184Zm9.535-49.252c-6.192-6.065-12.005-12.45-17.242-18.96c5.048-5.322 10.395-10.258 15.934-14.744c4.225-3.42 8.126-6.026 11.396-7.626c5.671-2.773 10.11-2.463 13.225 1.64c3.296 4.34 4.704 11.588 4.285 21.482c-.234 5.533-1.024 11.525-2.342 17.839c-5.2-1.046-10.74-1.9-16.536-2.539c-2.927-3.019-5.886-5.973-8.872-8.862l.152 11.77Zm67.967-10.29c-3.105-3.448-6.26-6.71-9.4-9.736a173.28 173.28 0 0 1 17.222-.268c-2.37 3.182-4.893 6.616-7.593 10.213l-.229-.21Zm37.627 7.332c5.776.691 11.291 1.552 16.491 2.58c-2.662 9.265-6.362 19.318-11.003 29.786c-1.966-4.166-4.09-8.412-6.375-12.688c-2.298-4.295-4.688-8.523-7.149-12.627c2.79-.655 5.459-1.38 8.036-2.173v-4.878Zm-6.769 48.096c2.56 4.405 4.998 8.846 7.308 13.262c2.3 4.4 4.456 8.78 6.46 13.1c-4.694 1.163-9.638 2.183-14.787 3.055c-1.788-3.406-3.68-6.858-5.66-10.325c-1.992-3.482-4.057-6.925-6.168-10.306c4.38-3.181 8.637-6.214 12.847-8.786Zm-46.869 24.825c3.456 3.836 6.969 7.39 10.476 10.632c-3.574.177-7.225.238-10.932.18c-3.703-.059-7.339-.236-10.874-.509c3.486-3.17 7.089-6.675 11.33-10.303Zm-65.052-42.91c0-10.18 14.867-21.988 39.004-30.24c1.398-.463 2.834-.91 4.299-1.345c3.24 10.257 7.612 21.163 12.963 32.432c-5.105 11-9.31 21.767-12.459 31.957a145.53 145.53 0 0 1-7.535-2.358C59.594 144.49 45.855 133.455 45.855 123.856Z"></path><circle cx="128" cy="113.634" r="19.818" fill="#00D8FF"></circle></svg>
